# xmcd
#
# Track frame offsets:
#	150
#	18297
#	39214
#	50502
#	69967
#	85890
#	99860
#	114202
#	133202
#	148322
#	165812
#
# Disc length: 2463 seconds
#
# Revision: 0
# Processed by: cddbd v1.5.1PL0 Copyright (c) Steve Scherf et al.
# Submitted via: EasyCDDAExtractor 7.1.2.1
#
DISCID=81099d0b
DTITLE=Nanina Ghelfi Band - Young
DYEAR=1994
DGENRE=Blues
TTITLE0=Waiting
TTITLE1=Came Lile A Song
TTITLE2=Seasick Blues
TTITLE3=One Of Seven Seas
TTITLE4=Set Sail
TTITLE5=Guess I Should
TTITLE6=Flags
TTITLE7=The Road To Paradise
TTITLE8=Jump Into The Water
TTITLE9=What Kind Of Longing
TTITLE10=No Place Like Home
EXTD=
EXTT0=
EXTT1=
EXTT2=
EXTT3=
EXTT4=
EXTT5=
EXTT6=
EXTT7=
EXTT8=
EXTT9=
EXTT10=
PLAYORDER=
